dataset
version=1
nRows=31
nColumns=39
inDegrees=no
endheader
time	sternoclavicular_r2	sternoclavicular_r3	unrotscap_r3	unrotscap_r2	acromioclavicular_r2	acromioclavicular_r3	acromioclavicular_r1	unrothum_r1	unrothum_r3	unrothum_r2	elv_angle	shoulder_elv	shoulder1_r2	shoulder_rot	elbow_flexion	pro_sup	deviation	flexion	cmc_abduction	cmc_flexion	mp_flexion	ip_flexion	mcp2_flexion	mcp2_abduction	pm2_flexion	md2_flexion	mcp3_flexion	mcp3_abduction	pm3_flexion	md3_flexion	mcp4_flexion	mcp4_abduction	pm4_flexion	md4_flexion	mcp5_flexion	mcp5_abduction	pm5_flexion	md5_flexion
5.625000	-0.035462	-0.384312	0.176458	0.188590	0.167680	0.106498	-0.150439	0.006927	0.038123	0.206409	0.200440	0.027437	0.146525	0.146525	1.426413	1.300828	0.000000	0.000000	0.000000	0.000000	0.000000	0.000000	0.000000	0.000000	0.000000	0.000000	0.000000	0.000000	0.000000	0.000000	0.000000	0.000000	0.000000	0.000000	0.000000	0.000000	0.000000	0.000000
5.630000	-0.035400	-0.383966	0.176228	0.188612	0.167634	0.106872	-0.150025	0.006845	0.038742	0.206333	0.200524	0.027437	0.146525	0.146525	1.427055	1.300743	0.000000	0.000000	0.000000	0.000000	0.000000	0.000000	0.000000	0.000000	0.000000	0.000000	0.000000	0.000000	0.000000	0.000000	0.000000	0.000000	0.000000	0.000000	0.000000	0.000000	0.000000	0.000000
5.635000	-0.035337	-0.383607	0.175990	0.188636	0.167588	0.107258	-0.149598	0.006755	0.039382	0.206256	0.200612	0.027437	0.146525	0.146525	1.427704	1.300658	0.000000	0.000000	0.000000	0.000000	0.000000	0.000000	0.000000	0.000000	0.000000	0.000000	0.000000	0.000000	0.000000	0.000000	0.000000	0.000000	0.000000	0.000000	0.000000	0.000000	0.000000	0.000000
5.640000	-0.035273	-0.383235	0.175745	0.188661	0.167541	0.107655	-0.149158	0.006659	0.040044	0.206179	0.200704	0.027437	0.146525	0.146525	1.428358	1.300573	0.000000	0.000000	0.000000	0.000000	0.000000	0.000000	0.000000	0.000000	0.000000	0.000000	0.000000	0.000000	0.000000	0.000000	0.000000	0.000000	0.000000	0.000000	0.000000	0.000000	0.000000	0.000000
5.645000	-0.035207	-0.382849	0.175492	0.188687	0.167493	0.108063	-0.148705	0.006555	0.040729	0.206101	0.200800	0.027437	0.146525	0.146525	1.429017	1.300488	0.000000	0.000000	0.000000	0.000000	0.000000	0.000000	0.000000	0.000000	0.000000	0.000000	0.000000	0.000000	0.000000	0.000000	0.000000	0.000000	0.000000	0.000000	0.000000	0.000000	0.000000	0.000000
5.650000	-0.035140	-0.382449	0.175231	0.188715	0.167445	0.108482	-0.148240	0.006443	0.041435	0.206022	0.200899	0.027437	0.146525	0.146525	1.429680	1.300404	0.000000	0.000000	0.000000	0.000000	0.000000	0.000000	0.000000	0.000000	0.000000	0.000000	0.000000	0.000000	0.000000	0.000000	0.000000	0.000000	0.000000	0.000000	0.000000	0.000000	0.000000	0.000000
5.655000	-0.035072	-0.382037	0.174964	0.188744	0.167396	0.108912	-0.147761	0.006324	0.042163	0.205942	0.201003	0.027437	0.146525	0.146525	1.430345	1.300319	0.000000	0.000000	0.000000	0.000000	0.000000	0.000000	0.000000	0.000000	0.000000	0.000000	0.000000	0.000000	0.000000	0.000000	0.000000	0.000000	0.000000	0.000000	0.000000	0.000000	0.000000	0.000000
5.660000	-0.035004	-0.381610	0.174690	0.188773	0.167345	0.109354	-0.147271	0.006196	0.042913	0.205862	0.201109	0.027437	0.146525	0.146525	1.431012	1.300235	0.000000	0.000000	0.000000	0.000000	0.000000	0.000000	0.000000	0.000000	0.000000	0.000000	0.000000	0.000000	0.000000	0.000000	0.000000	0.000000	0.000000	0.000000	0.000000	0.000000	0.000000	0.000000
5.665000	-0.034934	-0.381170	0.174409	0.188804	0.167293	0.109807	-0.146768	0.006060	0.043684	0.205780	0.201218	0.027437	0.146525	0.146525	1.431681	1.300152	0.000000	0.000000	0.000000	0.000000	0.000000	0.000000	0.000000	0.000000	0.000000	0.000000	0.000000	0.000000	0.000000	0.000000	0.000000	0.000000	0.000000	0.000000	0.000000	0.000000	0.000000	0.000000
5.670000	-0.034863	-0.380717	0.174122	0.188835	0.167239	0.110272	-0.146253	0.005914	0.044478	0.205696	0.201331	0.027437	0.146525	0.146525	1.432349	1.300068	0.000000	0.000000	0.000000	0.000000	0.000000	0.000000	0.000000	0.000000	0.000000	0.000000	0.000000	0.000000	0.000000	0.000000	0.000000	0.000000	0.000000	0.000000	0.000000	0.000000	0.000000	0.000000
5.675000	-0.034792	-0.380250	0.173829	0.188866	0.167184	0.110748	-0.145727	0.005760	0.045294	0.205611	0.201446	0.027437	0.146525	0.146525	1.433018	1.299985	0.000000	0.000000	0.000000	0.000000	0.000000	0.000000	0.000000	0.000000	0.000000	0.000000	0.000000	0.000000	0.000000	0.000000	0.000000	0.000000	0.000000	0.000000	0.000000	0.000000	0.000000	0.000000
5.680000	-0.034720	-0.379770	0.173531	0.188897	0.167127	0.111235	-0.145190	0.005595	0.046131	0.205524	0.201563	0.027437	0.146525	0.146525	1.433684	1.299903	0.000000	0.000000	0.000000	0.000000	0.000000	0.000000	0.000000	0.000000	0.000000	0.000000	0.000000	0.000000	0.000000	0.000000	0.000000	0.000000	0.000000	0.000000	0.000000	0.000000	0.000000	0.000000
5.685000	-0.034647	-0.379277	0.173227	0.188928	0.167067	0.111735	-0.144643	0.005421	0.046990	0.205435	0.201682	0.027437	0.146525	0.146525	1.434349	1.299821	0.000000	0.000000	0.000000	0.000000	0.000000	0.000000	0.000000	0.000000	0.000000	0.000000	0.000000	0.000000	0.000000	0.000000	0.000000	0.000000	0.000000	0.000000	0.000000	0.000000	0.000000	0.000000
5.690000	-0.034573	-0.378771	0.172918	0.188959	0.167005	0.112245	-0.144085	0.005236	0.047870	0.205344	0.201803	0.027437	0.146525	0.146525	1.435010	1.299740	0.000000	0.000000	0.000000	0.000000	0.000000	0.000000	0.000000	0.000000	0.000000	0.000000	0.000000	0.000000	0.000000	0.000000	0.000000	0.000000	0.000000	0.000000	0.000000	0.000000	0.000000	0.000000
5.695000	-0.034499	-0.378252	0.172605	0.188989	0.166940	0.112768	-0.143516	0.005041	0.048772	0.205250	0.201925	0.027437	0.146525	0.146525	1.435668	1.299659	0.000000	0.000000	0.000000	0.000000	0.000000	0.000000	0.000000	0.000000	0.000000	0.000000	0.000000	0.000000	0.000000	0.000000	0.000000	0.000000	0.000000	0.000000	0.000000	0.000000	0.000000	0.000000
5.700000	-0.034425	-0.377721	0.172288	0.189018	0.166872	0.113302	-0.142939	0.004834	0.049695	0.205154	0.202049	0.027437	0.146525	0.146525	1.436320	1.299579	0.000000	0.000000	0.000000	0.000000	0.000000	0.000000	0.000000	0.000000	0.000000	0.000000	0.000000	0.000000	0.000000	0.000000	0.000000	0.000000	0.000000	0.000000	0.000000	0.000000	0.000000	0.000000
5.705000	-0.034350	-0.377177	0.171967	0.189047	0.166800	0.113847	-0.142353	0.004616	0.050639	0.205055	0.202173	0.027437	0.146525	0.146525	1.436967	1.299500	0.000000	0.000000	0.000000	0.000000	0.000000	0.000000	0.000000	0.000000	0.000000	0.000000	0.000000	0.000000	0.000000	0.000000	0.000000	0.000000	0.000000	0.000000	0.000000	0.000000	0.000000	0.000000
5.710000	-0.034275	-0.376620	0.171643	0.189074	0.166725	0.114405	-0.141758	0.004386	0.051604	0.204953	0.202298	0.027437	0.146525	0.146525	1.437608	1.299421	0.000000	0.000000	0.000000	0.000000	0.000000	0.000000	0.000000	0.000000	0.000000	0.000000	0.000000	0.000000	0.000000	0.000000	0.000000	0.000000	0.000000	0.000000	0.000000	0.000000	0.000000	0.000000
5.715000	-0.034199	-0.376052	0.171316	0.189099	0.166646	0.114974	-0.141155	0.004144	0.052589	0.204848	0.202422	0.027437	0.146525	0.146525	1.438241	1.299343	0.000000	0.000000	0.000000	0.000000	0.000000	0.000000	0.000000	0.000000	0.000000	0.000000	0.000000	0.000000	0.000000	0.000000	0.000000	0.000000	0.000000	0.000000	0.000000	0.000000	0.000000	0.000000
5.720000	-0.034124	-0.375472	0.170986	0.189122	0.166563	0.115554	-0.140544	0.003889	0.053595	0.204739	0.202547	0.027437	0.146525	0.146525	1.438865	1.299266	0.000000	0.000000	0.000000	0.000000	0.000000	0.000000	0.000000	0.000000	0.000000	0.000000	0.000000	0.000000	0.000000	0.000000	0.000000	0.000000	0.000000	0.000000	0.000000	0.000000	0.000000	0.000000
5.725000	-0.034048	-0.374880	0.170655	0.189143	0.166476	0.116146	-0.139927	0.003621	0.054621	0.204627	0.202671	0.027437	0.146525	0.146525	1.439481	1.299190	0.000000	0.000000	0.000000	0.000000	0.000000	0.000000	0.000000	0.000000	0.000000	0.000000	0.000000	0.000000	0.000000	0.000000	0.000000	0.000000	0.000000	0.000000	0.000000	0.000000	0.000000	0.000000
5.730000	-0.033973	-0.374278	0.170323	0.189162	0.166384	0.116750	-0.139303	0.003339	0.055666	0.204511	0.202794	0.027437	0.146525	0.146525	1.440087	1.299115	0.000000	0.000000	0.000000	0.000000	0.000000	0.000000	0.000000	0.000000	0.000000	0.000000	0.000000	0.000000	0.000000	0.000000	0.000000	0.000000	0.000000	0.000000	0.000000	0.000000	0.000000	0.000000
5.735000	-0.033897	-0.373664	0.169990	0.189178	0.166286	0.117365	-0.138674	0.003044	0.056731	0.204391	0.202915	0.027437	0.146525	0.146525	1.440683	1.299041	0.000000	0.000000	0.000000	0.000000	0.000000	0.000000	0.000000	0.000000	0.000000	0.000000	0.000000	0.000000	0.000000	0.000000	0.000000	0.000000	0.000000	0.000000	0.000000	0.000000	0.000000	0.000000
5.740000	-0.033822	-0.373041	0.169657	0.189191	0.166184	0.117991	-0.138040	0.002734	0.057815	0.204266	0.203035	0.027437	0.146525	0.146525	1.441267	1.298968	0.000000	0.000000	0.000000	0.000000	0.000000	0.000000	0.000000	0.000000	0.000000	0.000000	0.000000	0.000000	0.000000	0.000000	0.000000	0.000000	0.000000	0.000000	0.000000	0.000000	0.000000	0.000000
5.745000	-0.033747	-0.372407	0.169324	0.189201	0.166076	0.118629	-0.137401	0.002410	0.058918	0.204137	0.203152	0.027437	0.146525	0.146525	1.441839	1.298896	0.000000	0.000000	0.000000	0.000000	0.000000	0.000000	0.000000	0.000000	0.000000	0.000000	0.000000	0.000000	0.000000	0.000000	0.000000	0.000000	0.000000	0.000000	0.000000	0.000000	0.000000	0.000000
5.750000	-0.033673	-0.371763	0.168992	0.189207	0.165962	0.119278	-0.136758	0.002071	0.060039	0.204004	0.203267	0.027437	0.146525	0.146525	1.442398	1.298825	0.000000	0.000000	0.000000	0.000000	0.000000	0.000000	0.000000	0.000000	0.000000	0.000000	0.000000	0.000000	0.000000	0.000000	0.000000	0.000000	0.000000	0.000000	0.000000	0.000000	0.000000	0.000000
5.755000	-0.033599	-0.371111	0.168661	0.189209	0.165842	0.119938	-0.136112	0.001716	0.061179	0.203865	0.203379	0.027437	0.146525	0.146525	1.442943	1.298755	0.000000	0.000000	0.000000	0.000000	0.000000	0.000000	0.000000	0.000000	0.000000	0.000000	0.000000	0.000000	0.000000	0.000000	0.000000	0.000000	0.000000	0.000000	0.000000	0.000000	0.000000	0.000000
5.760000	-0.033525	-0.370450	0.168332	0.189207	0.165715	0.120609	-0.135464	0.001346	0.062336	0.203721	0.203488	0.027437	0.146525	0.146525	1.443474	1.298686	0.000000	0.000000	0.000000	0.000000	0.000000	0.000000	0.000000	0.000000	0.000000	0.000000	0.000000	0.000000	0.000000	0.000000	0.000000	0.000000	0.000000	0.000000	0.000000	0.000000	0.000000	0.000000
5.765000	-0.033452	-0.369780	0.168006	0.189200	0.165581	0.121291	-0.134814	0.000959	0.063510	0.203572	0.203593	0.027437	0.146525	0.146525	1.443991	1.298619	0.000000	0.000000	0.000000	0.000000	0.000000	0.000000	0.000000	0.000000	0.000000	0.000000	0.000000	0.000000	0.000000	0.000000	0.000000	0.000000	0.000000	0.000000	0.000000	0.000000	0.000000	0.000000
5.770000	-0.033380	-0.369103	0.167683	0.189188	0.165441	0.121983	-0.134163	0.000556	0.064701	0.203417	0.203694	0.027437	0.146525	0.146525	1.444491	1.298552	0.000000	0.000000	0.000000	0.000000	0.000000	0.000000	0.000000	0.000000	0.000000	0.000000	0.000000	0.000000	0.000000	0.000000	0.000000	0.000000	0.000000	0.000000	0.000000	0.000000	0.000000	0.000000
5.775000	-0.033309	-0.368419	0.167364	0.189172	0.165293	0.122686	-0.133511	0.000135	0.065908	0.203257	0.203790	0.027437	0.146525	0.146525	1.444975	1.298487	0.000000	0.000000	0.000000	0.000000	0.000000	0.000000	0.000000	0.000000	0.000000	0.000000	0.000000	0.000000	0.000000	0.000000	0.000000	0.000000	0.000000	0.000000	0.000000	0.000000	0.000000	0.000000
